<?xml version="1.0" encoding="UTF-8" standalone="no"?>
<!DOCTYPE svg PUBLIC "-//W3C//DTD SVG 1.1//EN" "http://www.w3.org/Graphics/SVG/1.1/DTD/svg11.dtd">
<svg width="100%" height="100%" viewBox="0 0 108 108" version="1.1" xmlns="http://www.w3.org/2000/svg" xmlns:xlink="http://www.w3.org/1999/xlink" xml:space="preserve" xmlns:serif="http://www.serif.com/" style="fill-rule:evenodd;clip-rule:evenodd;stroke-linecap:round;stroke-linejoin:round;stroke-miterlimit:1.5;">
    <g transform="matrix(0.893878,0,0,1,4.50394,8.37103)">
        <path d="M88.994,14.378C88.994,11.06 85.981,8.367 82.269,8.367L28.475,8.367C24.764,8.367 21.751,11.06 21.751,14.378L21.751,116.113C21.751,119.43 24.764,122.124 28.475,122.124L82.269,122.124C85.981,122.124 88.994,119.43 88.994,116.113L88.994,14.378Z" style="fill:none;stroke:white;stroke-width:5.71px;"/>
    </g>
    <g id="invert-colors" transform="matrix(1.5,0,0,1.5,54,54)">
        <g transform="matrix(1,0,0,1,-12,-12)">
            <path d="M12,19.58C10.4,19.58 8.89,18.96 7.76,17.83C6.62,16.69 6,15.19 6,13.58C6,12 6.62,10.47 7.76,9.34L12,5.1M17.66,7.93L12,2.27L6.34,7.93C3.22,11.05 3.22,16.12 6.34,19.24C7.9,20.8 9.95,21.58 12,21.58C14.05,21.58 16.1,20.8 17.66,19.24C20.78,16.12 20.78,11.05 17.66,7.93Z" style="fill:white;fill-rule:nonzero;"/>
        </g>
    </g>
</svg>
